<?xml version="1.0" encoding="utf-8"?>
<!-- Generator: Adobe Illustrator 19.0.0, SVG Export Plug-In . SVG Version: 6.00 Build 0)  -->
<svg version="1.1" id="Capa_1" xmlns="http://www.w3.org/2000/svg" xmlns:xlink="http://www.w3.org/1999/xlink" x="0px" y="0px"
	 viewBox="0 0 2449 2449" style="enable-background:new 0 0 2449 2449;" xml:space="preserve">
<style type="text/css">
	.st0{fill:#FFFFFF;}
</style>
<g>
	<path d="M2249.6,1532c-30.3,0-60.7,0.1-91-0.1c-9-0.1-17.9-1-26.9-1.6c-2.7-0.2-5.3-0.6-8-0.5c-21,0.8-41.9,1.6-62.9,2.4
		c-1.7,0.1-3.3,0.1-5,0.3c-11.1,1-18.7,6.7-21.7,17.6c-6.9,25-13.6,50.1-20.2,75.2c-12,45.4-24,90.8-35.9,136.2
		c-8,30.6-15.6,61.3-23.7,91.9c-10.1,38.6-20.6,77.2-30.7,115.8c-7.9,29.9-15.4,60-23.3,89.9c-10.3,39.3-21.2,78.4-31,117.8
		c-5.4,21.9-13.3,42.6-24,62.3c-16.6,30.3-40.1,53.8-71,69.3c-15,7.5-31.1,11.6-48.1,11.6c-42.7,0-85.3-0.2-128,0.1
		c-27.9,0.2-52.2-9.9-74.2-25.9c-35.7-26-56.4-62.3-69.2-103.7c-7.3-23.9-14.4-47.8-21.7-71.7c-14.1-45.9-28.3-91.7-42.4-137.5
		c-16.2-52.5-32.3-105.1-48.5-157.6c-11.9-38.5-23.9-77-35.9-115.4c-7-22.6-13.9-45.2-21.2-67.7c-6-18.4-16.4-34.2-30.7-47.2
		c-3.6-3.3-7.9-6.1-12.1-8.7c-6.6-4.1-13.2-3.3-19.8,0.6c-13.3,7.9-22.9,19.2-30.5,32.3c-8.7,15.1-14.1,31.6-19.2,48.2
		c-8.6,28-17.2,56-25.8,84.1c-11.9,38.8-23.7,77.7-35.7,116.5c-8.6,28-17.5,56-26.1,84c-15.1,49-30.1,98.1-45.2,147.1
		c-10.3,33.4-20.3,67-31.1,100.2c-11.4,34.8-29.7,65.5-57.8,89.6c-23.4,20-49.9,32.8-81.6,32.7c-43.3-0.1-86.7-0.1-130-0.1
		c-15.3,0-29.6-3.8-43.4-10.1c-42-19.2-68.9-52.3-86.5-93.9c-11.1-26.2-16.4-54.1-23.8-81.4c-12.5-46.3-24.6-92.7-36.7-139.1
		c-7.7-29.3-15.1-58.7-22.8-88c-12.8-49.3-25.7-98.6-38.6-147.9c-9.4-36.1-18.8-72.2-28.3-108.2c-8.5-32.2-17-64.4-25.7-96.5
		c-4.7-17.3-11.3-22.4-29.1-22.8c-14.3-0.3-28.7,0.5-43-0.5c-17.3-1.2-34.5-0.3-51.8-0.1c-46.7,0.7-93.3,0-140,0.4
		c-25.4,0.2-46.8-8.1-64.5-26.5c-16.7-17.3-34-33.9-50.8-51c-15.3-15.5-22.5-34.3-22.5-56c0-55.7,0.1-111.3,0-167
		c0-21.7,7.1-40.6,22.4-56c19-19.2,38-38.3,57.4-57.2c11.3-11,24.9-17.6,40.8-19.3c3.3-0.3,6.6-1,9.8-1.8
		c8.7-2.1,16.6-10.9,17.3-19.8c0.6-8,0.6-16,0.6-24c0-75,0-150,0.1-225c0-10.3,0-20.7,0.7-31c2.2-30.9,18.5-52,46.5-64.3
		c3-1.3,6.3-2.2,9.3-3.6c7.8-3.5,13-9.3,14-18c0.5-4,0.7-8,0.8-12c0.1-12.7,0.3-25.3,0.1-38c-0.5-30.7,1.4-61.3,5.3-91.6
		c4.3-34,11.2-67.5,20.5-100.6c12.4-43.9,30.3-85.4,51.8-125.3c15-27.9,33-53.8,54.1-77.7c33.8-38.3,73.7-68.1,119.3-90.6
		c36.7-18.1,75.4-30,115.9-35.9c21.1-3.1,42.3-4.6,63.6-4.5c45,0.3,90-0.1,135,0.2c22,0.2,43.8,3.1,65.2,8
		c17.2,4,34.3,8.5,50.8,14.5c21.3,7.7,42.1,16.7,62.8,25.8c29.3,12.8,58.5,25.9,87.6,39.1c34.9,15.9,69.6,32,104.4,48
		c7,3.2,13.9,6.4,20.8,9.8c8.5,4.2,17.5,4.4,26.4,2.1c20.3-5.3,40.1-12.1,59.2-21.1c17.8-8.3,36-15.7,54-23.6c21-9.3,42-18.7,63-28
		c36.5-16.2,72.8-33.1,109.8-48.2c27.1-11.1,55.6-18.1,84.8-22.2c24.8-3.5,49.6-4.6,74.6-4.4c36,0.2,72,0,108,0.1
		c70.4,0.1,136.3,17.8,197.6,52.3c35.7,20.1,67.4,45.4,94.7,75.9c20.2,22.6,37.4,47.5,52.5,74c20.3,35.8,36.8,73.2,49.4,112.3
		c10.5,32.6,18.3,66,23.7,100c6.2,39.3,8.1,78.7,7.4,118.4c-0.2,12.3,0.4,24.7,0.1,37c-0.3,14.6,6.2,23.8,19.9,28.7
		c13.2,4.8,23.8,13.3,32.3,24.4c9.4,12.3,14.4,26.3,14.5,41.8c0.2,28.7,0.3,57.3-0.1,86c-0.1,7.2-1.5,14.6-3.2,21.7
		c-1.7,7-1.5,13.7-0.2,20.7c1.7,9.1,3.3,18.4,3.4,27.7c0.4,26.7,0.1,53.3,0.2,80c0,12.5-2.4,24.4-7.6,35.9
		c-7.2,15.8-0.9,26.3,16.6,26.8c19.3,0.6,38.7,0.1,58,0.4c7.3,0.1,14.7,0.8,21.8,2.3c29.5,6.1,53.9,33.4,55,63.4
		c1.1,30.3,0.4,60.6,0.5,91c0,16.6-5.7,31.2-15.5,44.5c-2.3,3.1-4.3,6.9-5.1,10.6c-1.3,6-0.1,11.8,4,16.9
		c11.5,14.3,17.1,30.7,16.9,49.1c-0.3,29.3,0.3,58.7-0.8,88c-1.3,32.3-27,60.1-59,65.3c-6.5,1.1-13.3,1.4-19.9,1.4
		C2313.6,1532,2281.6,1531.9,2249.6,1532C2249.6,1532,2249.6,1532,2249.6,1532z M2147.7,729.8c0.2-5.1,0.6-8.7,0.5-12.3
		c-0.7-20.3-0.5-40.7-2.6-60.8c-2.9-27.1-6.3-54.3-11.7-81c-8.4-41.5-21.1-81.8-38.5-120.6c-18.8-41.8-40.7-81.6-70.2-116.9
		c-38.1-45.7-84.8-79.9-139-103.6c-59.3-25.9-121.6-36.6-186.2-32.7c-41.5,2.5-81.8,11.3-120.3,27.2c-22.2,9.1-44,19.1-65.9,28.9
		c-49.3,21.9-98.6,43.8-147.9,65.8c-3.4,1.5-6.6,3.8-11.8,6.9c5.2,2.6,8.2,4.5,11.4,5.7c51.5,20,103,40.1,154.7,59.7
		c30,11.4,40.3,45.6,27.9,69.9c-11.8,23.1-36.7,33.7-61.6,25.8c-9.5-3-18.9-6.5-28.2-10.1c-46.2-17.9-92.7-35.4-138.6-54.2
		c-56.7-23.2-112.3-49.3-166.8-77.2c-20.2-10.3-40.3-20.8-60.9-30.1c-60.7-27.5-121.7-54.2-182.4-81.7
		c-52.9-23.9-108.2-37.1-166.3-37.6c-48.8-0.4-96.1,7.8-141.8,24.8c-75.7,28.1-136.9,75-182.7,141.4c-28.3,41.1-49.5,86-65.8,133.1
		c-14.5,42-24.4,85-29.9,129.1c-3.6,28.8-5.1,57.7-5.7,86.7c-0.1,4.4,1.1,8.9,1.7,14.3c31.2-3.1,57.5,4,75.5,30.3
		c1.6-1,2.7-1.4,3.2-2.1c16.6-21.7,39.1-29.6,65.8-28.9c22,0.6,44-0.1,66,0.2c8.3,0.1,16.6,1.4,24.8,1.9c3.9,0.3,7.9,0.3,11.8,0
		c7-0.5,13.9-1.9,20.8-1.9c25-0.2,50-0.5,75,0.1c10.2,0.3,20.4,2.6,30.4,4.7c3.7,0.8,6.8,0.7,10.6-0.1c9.7-2.1,19.6-4.2,29.4-4.6
		c17-0.7,34-0.5,51-0.1c15.6,0.4,31.2,1.5,46.8,2.3c2.6,0.1,5.3-0.1,7.9-0.3c7.9-0.7,15.9-2,23.8-2c63.3-0.2,126.6-0.1,190-0.1
		c3.7,0,7.5-0.5,11,0.2c13.5,2.9,26.9,0.9,40.5,0.3c29.3-1.3,58.7-1.2,88-0.2c28.7,0.9,49.6,15.5,62.7,41.1c1,2,2,3.9,3.6,6.8
		c1.2-2,2-3,2.5-4.1c14.5-30.8,38.9-45.1,72.8-44.3c20.3,0.5,40.7-0.2,61,0.2c10.6,0.2,21.2,1.5,31.8,2.1c3.6,0.2,7.3,0,10.9-0.3
		c7.3-0.6,14.6-1.8,21.9-1.8c71.7-0.1,143.3-0.2,215,0.1c8.9,0,17.8,2.1,26.7,3.1c3.2,0.3,6.5,0.5,9.7,0.2c9.9-1,19.8-3.2,29.7-3.3
		c50.7-0.3,101.3-0.2,152-0.1c5.7,0,11.3,0.2,17,0.6c22,1.7,39.5,11.1,51,30.5c1.1,1.9,2.6,3.5,4.4,5.9c4.7-4.4,8.9-8.1,12.8-12.2
		c16.1-16.9,35.5-24.8,59-24.3c33,0.6,66,0.2,99,0.1C2138.7,730.3,2142.6,730,2147.7,729.8z M1321.9,1530.5c1.6,2.1,2.7,3.8,4,5.2
		c13.1,15.1,22.1,32.3,27.8,51.4c13.7,45.2,27.8,90.3,41.8,135.5c13.2,42.9,26.5,85.8,39.7,128.7c8,25.7,16.1,51.4,24,77.2
		c11.4,37.2,22.6,74.5,34,111.7c8.6,28,17.9,55.8,25.9,83.9c9,31.9,23.3,60.8,45.5,85.6c20.7,23.1,46.3,38.4,76.8,43.5
		c44.8,7.5,81.9-9.3,112.5-41c22.2-22.9,36.8-50.6,45-81.3c18.7-69.5,37-139,55.2-208.6c17.4-66.3,34.6-132.8,51.9-199.1
		c16.1-61.9,32.3-123.7,48.4-185.6c0.5-1.8,0.7-3.7,1.1-6c-13.5-1.1-26.4-1.6-39.1-3.3c-13.3-1.8-23.5-10.3-33.7-18.6
		c-1.6,1-2.8,1.5-3.8,2.3c-14.6,13.1-31.7,18.9-51.3,18.6c-26.7-0.4-53.3,0-80-0.6c-8.2-0.2-16.4-2.2-24.5-4.1
		c-3.7-0.9-6.7-1.1-10.5-0.3c-9,2.1-18.3,4.1-27.4,4.3c-25,0.6-50,0.4-75,0.1c-8.3-0.1-16.5-1.6-24.8-2.2c-3.3-0.2-6.6-0.1-9.9,0.2
		c-7.6,0.6-15.2,2-22.8,2c-63.3,0.2-126.6,0.2-189.9,0c-9.3,0-18.6-1.3-27.8-2.3C1331,1527.3,1326.8,1526.9,1321.9,1530.5z
		 M510.6,1531.7c0.9,4.5,1.4,8.1,2.3,11.5c18,69.2,36.1,138.5,54.2,207.7c17.3,66,34.7,132,52,198c12.1,46.4,23.9,92.9,36.3,139.2
		c6.1,22.8,10.6,46.1,20.3,67.8c16.2,36.2,38.6,66.6,75,85.1c36.9,18.7,74,19.2,110.3,0c43-22.8,67.8-61.1,82.6-106.1
		c12.6-38.3,23.7-77,35.5-115.5c11-35.6,22.2-71.2,33.2-106.8c15.8-51.2,31.5-102.5,47.2-153.7c9-29.3,17.9-58.6,27-87.9
		c9.3-29.9,18.4-59.8,28-89.6c5.3-16.6,13.1-32,25.1-45c1.2-1.3,1.7-3.1,3.3-5.9c-16.6,1.6-31.5-5.3-46.8-0.3
		c-2.4,0.8-5.3,0.4-8,0.4c-57.7-0.1-115.3,0.3-173-0.6c-15.9-0.3-31.6-0.7-47.5,0c-26.3,1.2-52.6,0.3-79,0.3
		c-11.5,0-22.6-1.8-32.9-7.1c-3.6-1.9-6.6-2.2-10.3-0.3c-11.5,6-24,7.4-36.9,7.4c-23.7-0.1-47.3,0.1-71-0.1
		c-8-0.1-15.9-1.3-23.8-1.9c-3.3-0.2-6.6-0.3-9.9,0c-8.6,0.8-17.1,2.5-25.7,2.7c-18.7,0.4-37.3,0.1-56,0.2
		C518.8,1531.1,515.2,1531.5,510.6,1531.7z M253.3,799.3c-2.2,12.6-1.8,282.3,0.3,289.7c28.1,0,56.2,0,85.3,0
		c0.2-34.1,0-67.6,1.1-101.1c2.7,2.6,4.3,5.4,5.9,8.3c5.9,10.8,11.9,21.6,17.6,32.5c2.6,5,6.2,7,12,6.8c14-0.4,28-0.3,42,0
		c5.3,0.1,8.8-1.6,11.3-6.4c5.9-11.2,12-22.3,18-33.4c1.5-2.8,3.1-5.5,4.7-8.2c0.7,0.2,1.5,0.3,2.2,0.5c0,11.1,0,22.3,0,33.4
		c0,11.3-0.1,22.7,0,34c0.1,11.2-0.5,22.4,0.4,33.3c13.9,2.1,78.6,1.5,85.8-0.6c0.2-1.2,0.6-2.5,0.6-3.8c0-92.9,0-185.9,0-278.8
		c0-1.3-0.3-2.6-0.5-3.9c-0.1-0.3-0.4-0.5-0.6-0.7c-0.2-0.2-0.5-0.5-1.6-1.4c-2.1,0-5.1,0-8,0c-22,0-44,0.3-66-0.1
		c-6.9-0.1-10.7,2-14,8.3c-15.4,29.5-31.4,58.8-47.1,88.1c-1.7,3.1-3.4,6.1-5.6,10.2c-2.1-3.2-3.5-5-4.6-6.9
		c-11.8-21.6-23.5-43.3-35.3-65c-4.9-9.1-10-18.1-14.7-27.3c-2.8-5.4-6.6-7.5-12.7-7.3c-15.3,0.4-30.6,0.1-46,0.1
		C273.6,799.3,263.6,799.3,253.3,799.3z M1746.3,1170.6c0,34.7,0,68.7,0,102.6c-3.5-2.5-5.1-5.3-6.7-8.2c-15.6-29-31.3-58-46.7-87.2
		c-3-5.7-6.5-8.1-13.2-8c-22.6,0.5-45.3,0.2-68,0.2c-2.6,0-5.1,0.4-8.3,0.7c0,96.6,0,192.7,0,289c28.9,0,57,0,86.3,0
		c0-8.9,0-17.2,0-25.5c0-8.7,0-17.3,0-26c0-8.3-0.3-16.7,0.1-25c0.3-8.2-1.4-16.6,1.6-26.6c2.8,5.2,4.6,8.7,6.5,12.2
		c14.9,27.9,29.9,55.8,44.6,83.8c3,5.7,6.6,8,13.3,7.9c22.6-0.5,45.3-0.2,68-0.2c2.6,0,5.1-0.4,7.5-0.7
		c2.2-10.6,1.9-281.1-0.3-289.2C1803.5,1170.6,1775.9,1170.6,1746.3,1170.6z M2209.3,801.1c-2.6-0.3-4.2-0.8-5.8-0.8
		c-56,0-111.9,0-167.9-0.1c-4.4,0-7.6,1.4-10.6,4.5c-13.4,13.5-26.8,26.9-40.4,40.2c-3.3,3.3-4.8,6.7-4.8,11.4
		c0.2,25.3,0.2,50.6,0,76c0,4.7,1.3,8.2,4.7,11.5c13.3,13.1,26.5,26.3,39.5,39.7c3.8,3.9,7.9,5.3,13.3,5.3c25-0.2,50-0.1,75-0.1
		c3.6,0,7.1,0.3,10.9,0.5c0,5.2,0,9.3,0,14.7c-4.1,0-7.7,0-11.3,0c-40,0-80,0-119.9,0c-3.8,0-7.6,0.4-12,0.7
		c0.2,29.1-0.3,56.9,0.3,85.4c4.3,0,7.3,0,10.2,0c53.6,0,107.3,0,160.9,0c4.7,0,8.9,0,12.8-3.9c13.4-13.9,27.2-27.4,41-41
		c3.3-3.2,4.9-6.7,4.8-11.4c-0.2-25.3-0.2-50.6,0-76c0-4.3-1.1-7.6-4.2-10.6c-13.3-13.1-26.5-26.3-39.5-39.7
		c-4-4.2-8.4-5.7-14.2-5.6c-24.6,0.2-49.3,0.1-74,0.1c-3.5,0-7-0.3-10.6-0.5c0-5.6,0-10,0-15.1c24.2,0,47.4,0,70.7,0
		c23.5,0,47,0,71,0C2209.3,857.1,2209.3,829.6,2209.3,801.1z M501.6,1359.2c0,12.3,0,23.6,0,34.8c0,11-0.1,22,0,33
		c0.1,11.2-0.5,22.4,0.5,34.5c28.9,0.1,56.6,0.2,84.9-0.1c0-97.2,0-193,0-288.6c-11.8-2.4-77.9-1.8-85.4,0.8c0,10.7,0,21.7,0,32.7
		c0,11,0.1,22,0,33c-0.2,10.8,0.7,21.7-0.6,32.5c-19.6,0-38.1,0-57.5,0c-0.9-34.1,0.4-67.5-0.7-101c-29.1,0-56.9,0-84.6,0
		c-2.2,11.1-1.8,281.5,0.4,289.1c27.8,0,55.6,0,84.7,0c0-33.8,0-67,0-100.7C463,1359.2,481.5,1359.2,501.6,1359.2z M1730.8,799.7
		c-4.1,32.3-8.3,64.2-12.2,96.2c-4,32.4-8.1,64.8-11.8,97.2c-3.6,31.9-8.5,63.7-11,96.1c29.3,0,57.2,0,86.2,0
		c3.5-27.9,7-55.5,10.4-83.1c16.5,0,31.7,0,47.6,0c5.7,27.6,4.9,56,12.1,83.1c28.7,0,56.6,0,85.3,0c-0.3-3.5-0.4-6.4-0.7-9.3
		c-10.3-85-20.6-170-31-255c-1-8.4-2.9-16.8-4.4-25.3C1844.3,799.7,1788.7,799.7,1730.8,799.7z M665.3,1170.5
		c-5.2,20.7-36.2,280.2-34.6,289c11.8,1.9,77.1,1.4,85.1-0.8c3.4-26.9,6.8-54.2,10.2-82.2c13.7,0,26.3,0,38.9,0
		c2.6,0,5.2,0.4,8.5,0.6c0.9,5.1,2.1,9.9,2.7,14.8c2.1,16.9,3.8,33.8,5.9,50.6c0.7,5.8,2.2,11.6,3.3,17c15.8,2.2,78.8,1.4,85.9-1.1
		c-3.3-27.3-6.6-54.7-10-82.1c-5.4-43.3-10.9-86.6-16.3-129.9c-2.5-19.8-4.5-39.7-7-59.5c-0.7-5.5-2.1-10.9-3.2-16.4
		C777.6,1170.5,721.7,1170.5,665.3,1170.5z M1962.5,1374c0-39.7,0-78.1,0-117.9c48.1,0,95.6,0,142.8,0c2.1-13.3,1.6-78.6-0.6-86
		c-2.1-0.2-4.4-0.6-6.7-0.6c-52.7,0-105.3,0-158-0.1c-5.1,0-8.8,1.8-12.3,5.3c-15.9,16.2-31.8,32.3-48,48.1c-4,3.9-5.1,8.1-5.1,13.4
		c0.1,52.7,0.2,105.3,0,158c0,5.9,2,10,6,14c15.4,15.2,30.8,30.5,45.9,46c4.5,4.7,9.3,6.5,15.8,6.5c50.7-0.2,101.3-0.1,152-0.1
		c2.3,0,4.9,0.5,6.9-0.4c2-0.9,4-2.9,5-5c0.8-1.6,0.3-3.9,0.3-5.9c0-45,0-90,0-135c0-2.9-0.3-5.8-0.5-8.6
		c-10.8-2.6-79.7-2.1-87.8,0.9c0,22,0,44.5,0,67.4C1999,1374,1981.2,1374,1962.5,1374z M583.3,800c-0.3,3.1-0.8,5.7-0.8,8.2
		c0,72.6,0,145.3-0.1,217.9c0,5.1,1.6,8.8,5.2,12.3c15.4,15.3,30.7,30.6,45.6,46.2c4.3,4.5,8.9,6.1,14.9,6.1c33,0.1,66,0.5,98.9,1.1
		c6.3,0.1,10.7-1.9,15-6.2c15.4-15.7,30.9-31.3,46.6-46.7c4.1-4,5.8-8.3,5.8-14c-0.2-72-0.1-143.9-0.1-215.9c0-2.9-0.4-5.8-0.7-9
		c-28.8,0-56.9,0-86.3,0c0,68.1,0,135.6,0,203.5c-19.7,0-38.1,0-57.8,0c0-68.1,0-135.5,0-203.6C640.1,800,612,800,583.3,800z
		 M855.3,799.9c0,96.6,0,192.7,0,289.2c69.1,0,137.5,0,206.2,0c0-28.8,0-57,0-86.2c-20.6,0-40.6,0.2-60.5,0
		c-19.8-0.2-39.7,0.9-59.6-0.7c0-5.2,0-9.4,0-14.4c22.6,0,44.4,0,66.1,0c2.4-9.8,2.2-77.4-0.3-86.2c-21.5,0-43.4,0-65.7,0
		c0-5.8,0-10.6,0-16.3c40.3,0,79.9,0,119.2,0c2.3-10.3,2.1-77.6-0.2-85.4C992.4,799.9,924.2,799.9,855.3,799.9z M2233.6,1256.3
		c20.6,0,40.5,0,60.4,0c19.8-0.1,39.7,0.3,59.7-0.2c0-29.2,0-57,0-84.7c-11.4-2-198.3-1.7-205.8,0.3c-2.2,12.3-1.5,281.2,0.7,288.1
		c16.7,2.2,198.5,1.3,205.2-1.1c0-27.8,0-55.7,0-84.9c-40.4,0-80.1,0-119.9,0c0-5.8,0-10.2,0-15.6c22.7,0,44.6,0,66.8,0
		c0-28.8,0-56.6,0-85.5c-22.8-0.3-44.9,0.1-67-0.2C2233.6,1266.3,2233.6,1261.8,2233.6,1256.3z M1559.3,1170.8
		c-69.1,0-137.5,0-206.4,0c0,96.7,0,192.8,0,288.7c12.5,2,198.8,1.4,207-0.8c0-27.8,0.3-55.9-0.2-85c-41,0-80.5,0-120.5,0
		c0-5.4,0-9.8,0-15.3c22.6,0,44.4,0,66.9,0c0-28.9,0-56.7,0-86c-22.6,0-44.7,0-67.8,0c0.3-6.3,0.6-11,0.9-16.1
		c40.8-0.2,80.3,0.1,120.1-0.2C1559.3,1226.9,1559.3,1199.1,1559.3,1170.8z M314.4,1170.3c-2.9-0.4-4.5-0.8-6.1-0.8
		c-47,0-94,0-141-0.1c-4.8,0-8.1,1.8-11.3,5.1c-15.8,15.8-31.5,31.6-47.5,47.2c-3.7,3.6-5,7.3-5,12.3c0.1,54,0.1,108,0,162
		c0,5.1,1.6,8.8,5.2,12.3c15.7,15.4,31.3,30.9,46.6,46.7c4,4.1,8.3,5.8,14.1,5.7c45.3-0.2,90.6-0.1,136-0.1c2.9,0,5.8-0.4,9.7-0.8
		c0-28.5,0.2-56.3-0.2-85.3c-42.2,0-83,0-123.6,0c-2.3-12.5-1.8-110.2,0.6-118.2c13.3,0,27,0,40.6,0c13.7,0,27.3,0.1,41,0
		c13.5-0.1,27.1,0.4,41.1-0.4C314.4,1226.9,314.4,1199,314.4,1170.3z M1523.4,885.3c0,5.9,0,9.8,0,13.8c0,59.6,0,119.2,0,178.8
		c0,3.8,0.5,7.6,0.8,11.4c28.8,0,56.3,0,85.2,0c0-67.9,0-135.3,0-203.8c9.3,0,17.2,0,25.1,0c7.7,0,15.3,0.2,23-0.1
		c7.8-0.3,15.8,1.3,23.3-1.2c1.9-16,1.2-77.1-1-84.2c-75.7,0-151.4,0-227.8,0c0,28.5,0,56.3,0,85.2
		C1475.6,885.3,1498.7,885.3,1523.4,885.3z M1218.8,1374.6c0-68.9,0-136.2,0-203.9c-28.9,0-56.7,0-85.3,0c0,96.6,0,192.7,0,288.7
		c11,2,167.6,1.6,176.1-0.6c0-27.5,0.2-55.3-0.1-84.1C1278.9,1374.6,1249.8,1374.6,1218.8,1374.6z M1105.8,800c0,97,0,192.8,0,289.1
		c58.8,0,116.9,0,175.3,0c0-28.5,0-56.3,0-85.2c-30.1-0.5-59.5,0.2-90-0.4c0-68.6,0-135.7,0-203.5C1162.2,800,1134.4,800,1105.8,800
		z M999.3,1374.6c0-68.9,0-136.1,0-203.9c-28.9,0-56.7,0-85.1,0c0,96.6,0,192.7,0,288.6c11.9,2.1,167.7,1.6,175.9-0.7
		c0-27.5,0.1-55.3,0-84.1C1059.4,1374.6,1030.2,1374.6,999.3,1374.6z M1324.9,1089.8c29-0.1,56.8,0.2,84.4-0.1
		c2.4-15.1,1.6-282.7-0.6-289.6c-14.1-1.8-76.3-1.2-83.8,1C1324.9,896.8,1324.9,992.6,1324.9,1089.8z"/>
	<path class="st0" d="M2147.7,729.8c-5.2,0.2-9.1,0.6-13,0.6c-33,0-66,0.5-99-0.1c-23.5-0.5-42.9,7.4-59,24.3
		c-3.9,4.1-8.1,7.7-12.8,12.2c-1.8-2.3-3.3-4-4.4-5.9c-11.5-19.4-29-28.8-51-30.5c-5.6-0.4-11.3-0.6-17-0.6
		c-50.7,0-101.3-0.2-152,0.1c-9.9,0.1-19.8,2.3-29.7,3.3c-3.2,0.3-6.5,0.1-9.7-0.2c-8.9-1-17.8-3.1-26.7-3.1
		c-71.7-0.3-143.3-0.2-215-0.1c-7.3,0-14.6,1.3-21.9,1.8c-3.6,0.3-7.3,0.5-10.9,0.3c-10.6-0.6-21.2-1.9-31.8-2.1
		c-20.3-0.3-40.7,0.3-61-0.2c-33.9-0.8-58.3,13.5-72.8,44.3c-0.5,1.1-1.2,2.1-2.5,4.1c-1.5-2.9-2.6-4.9-3.6-6.8
		c-13.1-25.6-34-40.2-62.7-41.1c-29.3-1-58.7-1-88,0.2c-13.6,0.6-27,2.5-40.5-0.3c-3.5-0.7-7.3-0.2-11-0.2
		c-63.3,0-126.6-0.1-190,0.1c-7.9,0-15.9,1.4-23.8,2c-2.6,0.2-5.3,0.4-7.9,0.3c-15.6-0.7-31.2-1.9-46.8-2.3c-17-0.4-34-0.6-51,0.1
		c-9.9,0.4-19.7,2.5-29.4,4.6c-3.7,0.8-6.8,0.9-10.6,0.1c-10-2.1-20.2-4.5-30.4-4.7c-25-0.7-50-0.4-75-0.1
		c-6.9,0.1-13.9,1.4-20.8,1.9c-3.9,0.3-7.9,0.3-11.8,0c-8.3-0.5-16.6-1.8-24.8-1.9c-22-0.3-44,0.4-66-0.2
		c-26.7-0.7-49.2,7.1-65.8,28.9c-0.5,0.7-1.6,1-3.2,2.1c-18-26.4-44.3-33.4-75.5-30.3c-0.7-5.4-1.8-9.9-1.7-14.3
		c0.6-29,2.1-57.9,5.7-86.7c5.5-44.1,15.4-87.2,29.9-129.1c16.3-47.1,37.4-92,65.8-133.1c45.8-66.4,107-113.3,182.7-141.4
		c45.8-17,93.1-25.2,141.8-24.8c58.1,0.4,113.4,13.6,166.3,37.6c60.7,27.5,121.7,54.2,182.4,81.7c20.6,9.3,40.7,19.8,60.9,30.1
		c54.6,27.9,110.1,54,166.8,77.2c45.9,18.8,92.3,36.2,138.6,54.2c9.3,3.6,18.7,7.1,28.2,10.1c24.9,7.9,49.8-2.7,61.6-25.8
		c12.4-24.3,2-58.6-27.9-69.9c-51.7-19.6-103.1-39.7-154.7-59.7c-3.2-1.3-6.2-3.1-11.4-5.7c5.2-3.1,8.3-5.3,11.8-6.9
		c49.3-22,98.6-43.9,147.9-65.8c21.9-9.7,43.7-19.8,65.9-28.9c38.5-15.8,78.7-24.7,120.3-27.2c64.6-3.9,126.9,6.9,186.2,32.7
		c54.2,23.7,100.9,57.9,139,103.6c29.5,35.4,51.4,75.1,70.2,116.9c17.4,38.8,30.1,79.1,38.5,120.6c5.4,26.7,8.9,53.9,11.7,81
		c2.1,20.1,1.9,40.5,2.6,60.8C2148.4,721.1,2148,724.7,2147.7,729.8z"/>
	<path class="st0" d="M1321.9,1530.5c4.9-3.6,9.1-3.2,13.4-2.7c9.2,1,18.5,2.3,27.8,2.3c63.3,0.2,126.6,0.2,189.9,0
		c7.6,0,15.2-1.4,22.8-2c3.3-0.3,6.6-0.4,9.9-0.2c8.3,0.6,16.5,2.1,24.8,2.2c25,0.3,50,0.5,75-0.1c9.2-0.2,18.4-2.3,27.4-4.3
		c3.8-0.9,6.9-0.6,10.5,0.3c8,1.9,16.3,3.9,24.5,4.1c26.6,0.6,53.3,0.1,80,0.6c19.6,0.3,36.7-5.4,51.3-18.6c0.9-0.9,2.2-1.4,3.8-2.3
		c10.1,8.3,20.3,16.8,33.7,18.6c12.7,1.8,25.6,2.2,39.1,3.3c-0.4,2.3-0.7,4.2-1.1,6c-16.1,61.9-32.3,123.7-48.4,185.6
		c-17.3,66.4-34.4,132.8-51.9,199.1c-18.3,69.6-36.6,139.1-55.2,208.6c-8.3,30.7-22.9,58.4-45,81.3c-30.7,31.7-67.7,48.5-112.5,41
		c-30.5-5.1-56.1-20.4-76.8-43.5c-22.2-24.7-36.5-53.7-45.5-85.6c-8-28.2-17.3-56-25.9-83.9c-11.4-37.2-22.6-74.5-34-111.7
		c-7.9-25.8-16-51.5-24-77.2c-13.3-42.9-26.5-85.8-39.7-128.7c-13.9-45.1-28.1-90.2-41.8-135.5c-5.8-19.1-14.8-36.3-27.8-51.4
		C1324.7,1534.2,1323.6,1532.6,1321.9,1530.5z"/>
	<path class="st0" d="M510.6,1531.7c4.6-0.2,8.2-0.6,11.8-0.6c18.7-0.1,37.3,0.3,56-0.2c8.6-0.2,17.1-1.9,25.7-2.7
		c3.3-0.3,6.6-0.3,9.9,0c8,0.6,15.9,1.8,23.8,1.9c23.7,0.3,47.3,0,71,0.1c12.8,0.1,25.3-1.4,36.9-7.4c3.7-1.9,6.7-1.6,10.3,0.3
		c10.3,5.3,21.4,7.1,32.9,7.1c26.3,0,52.7,0.9,79-0.3c15.9-0.7,31.6-0.3,47.5,0c57.6,1,115.3,0.5,173,0.6c2.7,0,5.5,0.4,8-0.4
		c15.3-5,30.2,1.9,46.8,0.3c-1.6,2.8-2.1,4.7-3.3,5.9c-12,13-19.8,28.4-25.1,45c-9.6,29.8-18.8,59.7-28,89.6
		c-9.1,29.3-18,58.6-27,87.9c-15.7,51.2-31.4,102.5-47.2,153.7c-11,35.6-22.2,71.2-33.2,106.8c-11.9,38.5-23,77.3-35.5,115.5
		c-14.8,45-39.5,83.3-82.6,106.1c-36.3,19.2-73.4,18.7-110.3,0c-36.4-18.5-58.9-48.9-75-85.1c-9.7-21.7-14.2-45-20.3-67.8
		c-12.4-46.3-24.2-92.8-36.3-139.2c-17.3-66-34.7-132-52-198c-18.1-69.2-36.2-138.5-54.2-207.7
		C512,1539.8,511.5,1536.2,510.6,1531.7z"/>
	<path class="st0" d="M253.3,799.3c10.4,0,20.3,0,30.3,0c15.3,0,30.7,0.3,46-0.1c6.1-0.2,10,1.9,12.7,7.3
		c4.7,9.2,9.8,18.2,14.7,27.3c11.8,21.7,23.5,43.3,35.3,65c1.1,2,2.5,3.8,4.6,6.9c2.2-4.1,4-7.1,5.6-10.2
		c15.8-29.3,31.7-58.6,47.1-88.1c3.3-6.2,7.1-8.4,14-8.3c22,0.4,44,0.1,66,0.1c3,0,5.9,0,8,0c1.1,1,1.3,1.2,1.6,1.4
		c0.2,0.2,0.6,0.5,0.6,0.7c0.2,1.3,0.5,2.6,0.5,3.9c0,92.9,0,185.9,0,278.8c0,1.3-0.4,2.6-0.6,3.8c-7.1,2.1-71.9,2.7-85.8,0.6
		c-0.8-10.9-0.3-22.1-0.4-33.3c-0.1-11.3,0-22.7,0-34c0-11.1,0-22.3,0-33.4c-0.7-0.2-1.5-0.3-2.2-0.5c-1.6,2.7-3.2,5.4-4.7,8.2
		c-6,11.1-12.1,22.2-18,33.4c-2.5,4.7-6,6.5-11.3,6.4c-14-0.3-28-0.4-42,0c-5.8,0.2-9.4-1.9-12-6.8c-5.7-10.9-11.7-21.7-17.6-32.5
		c-1.6-2.8-3.2-5.6-5.9-8.3c-1.2,33.6-1,67-1.1,101.1c-29.1,0-57.2,0-85.3,0C251.5,1081.6,251,811.9,253.3,799.3z"/>
	<path class="st0" d="M1746.3,1170.6c29.7,0,57.2,0,84.6,0c2.3,8.2,2.6,278.7,0.3,289.2c-2.4,0.2-4.9,0.7-7.5,0.7
		c-22.7,0.1-45.3-0.3-68,0.2c-6.7,0.1-10.3-2.2-13.3-7.9c-14.7-28-29.7-55.9-44.6-83.8c-1.9-3.5-3.7-7-6.5-12.2
		c-3,10-1.3,18.4-1.6,26.6c-0.3,8.3-0.1,16.7-0.1,25c0,8.7,0,17.3,0,26c0,8.3,0,16.5,0,25.5c-29.3,0-57.4,0-86.3,0
		c0-96.3,0-192.4,0-289c3.1-0.3,5.7-0.7,8.3-0.7c22.7-0.1,45.3,0.3,68-0.2c6.7-0.1,10.2,2.3,13.2,8c15.4,29.2,31.1,58.2,46.7,87.2
		c1.5,2.8,3.1,5.6,6.7,8.2C1746.3,1239.3,1746.3,1205.3,1746.3,1170.6z"/>
	<path class="st0" d="M2209.3,801.1c0,28.5,0,56,0,85c-24,0-47.5,0-71,0c-23.3,0-46.6,0-70.7,0c0,5.1,0,9.5,0,15.1
		c3.5,0.2,7.1,0.5,10.6,0.5c24.7,0,49.3,0.2,74-0.1c5.7-0.1,10.1,1.4,14.2,5.6c13,13.4,26.2,26.6,39.5,39.7
		c3.1,3.1,4.2,6.4,4.2,10.6c-0.1,25.3-0.2,50.6,0,76c0,4.7-1.5,8.2-4.8,11.4c-13.8,13.6-27.5,27.1-41,41c-3.8,3.9-8.1,3.9-12.8,3.9
		c-53.6,0-107.3,0-160.9,0c-2.9,0-5.9,0-10.2,0c-0.6-28.6-0.1-56.4-0.3-85.4c4.4-0.2,8.2-0.6,12-0.7c40,0,80,0,119.9,0
		c3.6,0,7.1,0,11.3,0c0-5.4,0-9.6,0-14.7c-3.8-0.2-7.4-0.5-10.9-0.5c-25,0-50-0.1-75,0.1c-5.4,0-9.5-1.4-13.3-5.3
		c-13-13.4-26.2-26.6-39.5-39.7c-3.3-3.3-4.7-6.8-4.7-11.5c0.2-25.3,0.2-50.6,0-76c0-4.7,1.4-8.2,4.8-11.4
		c13.6-13.3,27-26.7,40.4-40.2c3-3,6.2-4.5,10.6-4.5c56,0.1,111.9,0.1,167.9,0.1C2205.1,800.3,2206.7,800.7,2209.3,801.1z"/>
	<path class="st0" d="M501.6,1359.2c-20.1,0-38.6,0-58.4,0c0,33.7,0,66.9,0,100.7c-29.1,0-56.9,0-84.7,0c-2.1-7.5-2.5-278-0.4-289.1
		c27.7,0,55.5,0,84.6,0c1.1,33.5-0.2,66.9,0.7,101c19.3,0,37.8,0,57.5,0c1.3-10.8,0.5-21.7,0.6-32.5c0.2-11,0-22,0-33
		c0-11,0-21.9,0-32.7c7.4-2.7,73.6-3.2,85.4-0.8c0,95.6,0,191.4,0,288.6c-28.2,0.3-56,0.2-84.9,0.1c-1-12.1-0.4-23.3-0.5-34.5
		c-0.1-11,0-22,0-33C501.6,1382.7,501.6,1371.5,501.6,1359.2z"/>
	<path class="st0" d="M1730.8,799.7c57.8,0,113.5,0,170.5,0c1.5,8.5,3.3,16.8,4.4,25.3c10.4,85,20.7,170,31,255
		c0.3,2.9,0.5,5.7,0.7,9.3c-28.7,0-56.6,0-85.3,0c-7.2-27.1-6.3-55.4-12.1-83.1c-15.9,0-31.1,0-47.6,0c-3.5,27.7-6.9,55.2-10.4,83.1
		c-29,0-56.9,0-86.2,0c2.5-32.5,7.4-64.3,11-96.1c3.7-32.4,7.7-64.8,11.8-97.2C1722.6,863.9,1726.7,832,1730.8,799.7z M1807.2,886.1
		c-1.4,11.1-2.7,21.5-4.1,32.6c9.2,0,17.2,0,26.1,0c-1.1-11.3-2.1-21.7-3.2-32.6C1819.7,886.1,1814.2,886.1,1807.2,886.1z"/>
	<path class="st0" d="M665.3,1170.5c56.4,0,112.3,0,169.3,0c1.1,5.5,2.6,10.9,3.2,16.4c2.5,19.8,4.6,39.7,7,59.5
		c5.4,43.3,10.9,86.6,16.3,129.9c3.4,27.4,6.7,54.8,10,82.1c-7.1,2.5-70.1,3.3-85.9,1.1c-1.1-5.4-2.5-11.1-3.3-17
		c-2.1-16.9-3.9-33.8-5.9-50.6c-0.6-4.9-1.7-9.7-2.7-14.8c-3.3-0.3-5.9-0.6-8.5-0.6c-12.6-0.1-25.2,0-38.9,0
		c-3.5,28-6.9,55.3-10.2,82.2c-8,2.3-73.3,2.7-85.1,0.8C629.1,1450.7,660.1,1191.2,665.3,1170.5z M736.5,1289.6c9.4,0,17.2,0,26.2,0
		c-1.1-11.4-2.2-22-3.3-32.7c-6.9,0-12.4,0-18.7,0C739.4,1267.8,738,1278.2,736.5,1289.6z"/>
	<path class="st0" d="M1962.5,1374c18.7,0,36.6,0,55.6,0c0-22.8,0-45.3,0-67.4c8.1-3,77-3.4,87.8-0.9c0.2,2.7,0.5,5.6,0.5,8.6
		c0,45,0,90,0,135c0,2,0.5,4.3-0.3,5.9c-1,2-3,4.1-5,5c-2,0.9-4.6,0.4-6.9,0.4c-50.7,0-101.3-0.1-152,0.1c-6.5,0-11.2-1.8-15.8-6.5
		c-15.1-15.6-30.4-30.8-45.9-46c-4-4-6-8.1-6-14c0.2-52.7,0.2-105.3,0-158c0-5.3,1.1-9.5,5.1-13.4c16.2-15.9,32.1-32,48-48.1
		c3.5-3.5,7.1-5.3,12.3-5.3c52.7,0.2,105.3,0.1,158,0.1c2.3,0,4.5,0.4,6.7,0.6c2.2,7.4,2.7,72.8,0.6,86c-47.2,0-94.6,0-142.8,0
		C1962.5,1295.9,1962.5,1334.3,1962.5,1374z"/>
	<path class="st0" d="M583.3,800c28.7,0,56.8,0,86.2,0c0,68.1,0,135.5,0,203.6c19.7,0,38.1,0,57.8,0c0-68,0-135.4,0-203.5
		c29.4,0,57.5,0,86.3,0c0.3,3.2,0.7,6.1,0.7,9c0,72,0,143.9,0.1,215.9c0,5.8-1.7,10-5.8,14c-15.7,15.4-31.2,31-46.6,46.7
		c-4.2,4.3-8.7,6.3-15,6.2c-33-0.7-66-1-98.9-1.1c-6.1,0-10.6-1.6-14.9-6.1c-15-15.6-30.3-31-45.6-46.2c-3.6-3.5-5.2-7.2-5.2-12.3
		c0.1-72.6,0.1-145.3,0.1-217.9C582.5,805.7,583,803.1,583.3,800z"/>
	<path class="st0" d="M855.3,799.9c68.9,0,137.1,0,205.2,0c2.3,7.7,2.5,75.1,0.2,85.4c-39.3,0-78.8,0-119.2,0c0,5.7,0,10.4,0,16.3
		c22.3,0,44.2,0,65.7,0c2.5,8.8,2.7,76.4,0.3,86.2c-21.6,0-43.5,0-66.1,0c0,5,0,9.2,0,14.4c19.9,1.6,39.8,0.5,59.6,0.7
		c19.9,0.2,39.9,0,60.5,0c0,29.2,0,57.3,0,86.2c-68.7,0-137.1,0-206.2,0C855.3,992.6,855.3,896.5,855.3,799.9z"/>
	<path class="st0" d="M2233.6,1256.3c0,5.5,0,10,0,16.1c22.2,0.3,44.3-0.1,67,0.2c0,28.9,0,56.7,0,85.5c-22.2,0-44.1,0-66.8,0
		c0,5.4,0,9.9,0,15.6c39.8,0,79.5,0,119.9,0c0,29.2,0,57,0,84.9c-6.7,2.3-188.4,3.3-205.2,1.1c-2.2-6.9-2.9-275.8-0.7-288.1
		c7.5-1.9,194.5-2.3,205.8-0.3c0,27.7,0,55.5,0,84.7c-20,0.5-39.9,0.2-59.7,0.2C2274.1,1256.3,2254.2,1256.3,2233.6,1256.3z"/>
	<path class="st0" d="M1559.3,1170.8c0,28.4,0,56.2,0,85.4c-39.8,0.3-79.3,0-120.1,0.2c-0.3,5.1-0.5,9.8-0.9,16.1
		c23.1,0,45.2,0,67.8,0c0,29.3,0,57.1,0,86c-22.5,0-44.3,0-66.9,0c0,5.5,0,9.9,0,15.3c40,0,79.5,0,120.5,0c0.5,29.1,0.2,57.2,0.2,85
		c-8.2,2.2-194.5,2.7-207,0.8c0-95.9,0-192,0-288.7C1421.8,1170.8,1490.2,1170.8,1559.3,1170.8z"/>
	<path class="st0" d="M314.4,1170.3c0,28.7,0,56.6,0,85.6c-14,0.8-27.5,0.3-41.1,0.4c-13.7,0.1-27.3,0-41,0c-13.6,0-27.2,0-40.6,0
		c-2.4,7.9-2.9,105.7-0.6,118.2c40.6,0,81.4,0,123.6,0c0.4,29,0.1,56.8,0.2,85.3c-3.9,0.3-6.8,0.8-9.7,0.8c-45.3,0-90.6-0.1-136,0.1
		c-5.8,0-10-1.6-14.1-5.7c-15.4-15.7-30.9-31.3-46.6-46.7c-3.6-3.5-5.2-7.2-5.2-12.3c0.2-54,0.1-108,0-162c0-5,1.4-8.8,5-12.3
		c16-15.6,31.8-31.4,47.5-47.2c3.2-3.2,6.5-5.1,11.3-5.1c47,0.2,94,0.1,141,0.1C309.9,1169.5,311.5,1169.9,314.4,1170.3z"/>
	<path class="st0" d="M1523.4,885.3c-24.6,0-47.8,0-71.4,0c0-28.9,0-56.7,0-85.2c76.4,0,152.1,0,227.8,0c2.2,7.1,2.9,68.3,1,84.2
		c-7.5,2.5-15.5,0.9-23.3,1.2c-7.6,0.3-15.3,0.1-23,0.1c-7.9,0-15.8,0-25.1,0c0,68.5,0,135.9,0,203.8c-28.9,0-56.4,0-85.2,0
		c-0.3-3.8-0.8-7.6-0.8-11.4c0-59.6,0-119.2,0-178.8C1523.4,895.1,1523.4,891.1,1523.4,885.3z"/>
	<path class="st0" d="M1218.8,1374.6c31,0,60.1,0,90.7,0c0.3,28.9,0.1,56.6,0.1,84.1c-8.4,2.2-165.1,2.6-176.1,0.6
		c0-96,0-192.1,0-288.7c28.6,0,56.4,0,85.3,0C1218.8,1238.5,1218.8,1305.7,1218.8,1374.6z"/>
	<path class="st0" d="M1105.8,800c28.6,0,56.4,0,85.3,0c0,67.8,0,135,0,203.5c30.5,0.5,59.9-0.1,90,0.4c0,28.9,0,56.7,0,85.2
		c-58.5,0-116.5,0-175.3,0C1105.8,992.8,1105.8,897,1105.8,800z"/>
	<path class="st0" d="M999.3,1374.6c31,0,60.2,0,90.8,0c0.1,28.8,0,56.6,0,84.1c-8.2,2.3-164,2.7-175.9,0.7c0-95.9,0-192,0-288.6
		c28.5,0,56.2,0,85.1,0C999.3,1238.5,999.3,1305.7,999.3,1374.6z"/>
	<path class="st0" d="M1324.9,1089.8c0-97.2,0-193,0-288.7c7.5-2.2,69.7-2.8,83.8-1c2.2,6.8,3,274.5,0.6,289.6
		C1381.8,1090,1354,1089.8,1324.9,1089.8z"/>
	<path d="M1807.2,886.1c6.9,0,12.4,0,18.8,0c1.1,10.9,2.1,21.4,3.2,32.6c-8.9,0-16.9,0-26.1,0
		C1804.5,907.6,1805.8,897.2,1807.2,886.1z"/>
	<path d="M736.5,1289.6c1.5-11.4,2.8-21.8,4.2-32.7c6.3,0,11.8,0,18.7,0c1.1,10.7,2.1,21.3,3.3,32.7
		C753.7,1289.6,745.9,1289.6,736.5,1289.6z"/>
</g>
</svg>
