<?xml version="1.0" encoding="utf-8"?>
<!-- Generator: Adobe Illustrator 19.0.0, SVG Export Plug-In . SVG Version: 6.00 Build 0)  -->
<svg version="1.1" id="Capa_1" xmlns="http://www.w3.org/2000/svg" xmlns:xlink="http://www.w3.org/1999/xlink" x="0px" y="0px"
	 viewBox="0 0 567.4 587.3" style="enable-background:new 0 0 567.4 587.3;" xml:space="preserve">
<style type="text/css">
	.st0{fill:#4C8CFE;}
</style>
<g>
	<path class="st0" d="M276.8,138.6c-1.4,78.9-63.9,140.1-142,138.2C56.8,275-3.1,209.2,0.1,132.6C3.2,58.3,66.2-3.3,144.6,0.1
		C216.4,3.3,276.2,62.2,276.8,138.6z M65.8,138.5c0.1,40.4,32.5,72.7,72.7,72.6c40-0.1,72.7-33,72.5-73
		c-0.2-39.9-32.7-72.2-72.7-72.3C98.1,65.8,65.7,98.2,65.8,138.5z"/>
	<path class="st0" d="M495.6,432.1c19.2,0,38.3,0.1,57.5-0.1c3.1,0,4.4,0.7,4.6,4c2.5,38.9-2.6,75.9-28.1,107.4
		c-17.4,21.6-40.5,34.2-67.4,39.9c-39.2,8.4-76.4,3.1-109.9-19.5c-36-24.3-56.9-58.4-61.1-101.8c-7.3-74.8,45.3-141.3,120.1-150.5
		c50-6.2,91.5,11.5,124.4,49.6c2,2.4,2,3.6-0.7,5.4c-15.7,10.4-31.4,20.7-46.9,31.4c-3.5,2.4-5,0.4-7-1.6
		c-30-28.8-79.1-27.7-107.3,3c-19.5,21.4-24.8,46.7-15.1,73.8c9.9,27.8,30.3,44.7,59.8,48.8c23.6,3.3,45-2.1,61.9-20.3
		c4.1-4.5,6.9-9.8,9-15.4c1.3-3.4,0.8-4.7-3.2-4.6c-15.7,0.2-31.3-0.1-47,0.2c-3.9,0.1-5.1-0.9-5.1-5c0.3-13.5,0.2-27,0-40.5
		c-0.1-3.6,1.1-4.4,4.5-4.4C457.6,432.2,476.6,432.1,495.6,432.1z"/>
	<path class="st0" d="M205.6,432.1c19,0,38,0,57,0c1.9,0,4.3-1,4.6,2.7c2.5,26.6,0,52.6-9.8,77.5c-13.6,34.5-38.5,57.3-73.8,67.8
		c-48,14.3-92.8,7.5-132.3-24.2c-28.9-23.2-45.7-53.8-50.2-90.7c-8.9-71.7,39.1-137.3,107.3-151.5c54.5-11.4,100.1,5.5,136.8,47.1
		c2.5,2.8,1.8,4.1-1.1,6c-15.2,9.9-30.3,20-45.3,30.3c-3.5,2.4-5.4,2-8.3-0.9c-32.1-32.5-96.4-27.5-119.8,21.7
		c-21.1,44.4,9.1,99,58,104.3c22.8,2.5,43.4-2.2,60-19.1c4.9-4.9,8.2-10.8,10.4-17.4c1-3.1,0.4-4-2.9-4c-15.5,0.1-31-0.2-46.5,0.2
		c-5,0.1-6.1-1.5-5.9-6.2c0.3-13.2,0.2-26.3,0-39.5c0-3.3,1-4.2,4.3-4.2C167.3,432.2,186.5,432.1,205.6,432.1z"/>
	<path class="st0" d="M303.1,138.6c0-44.5,0.1-89-0.1-133.5c0-4.2,1.1-5.2,5.3-5.2c43.8,0.2,87.6,0,131.5,0.1
		c52.2,0.1,92.5,36.7,98.6,88.7c3.5,30.1-1.6,58.1-19.8,82.8c-18.6,25.1-43.9,38.4-75.1,39.3c-24.1,0.7-48.3,0.3-72.5,0
		c-5-0.1-5.9,1.5-5.9,6.1c0.3,18.2,0,36.3,0.2,54.5c0,4-0.7,5.5-5.1,5.4c-17.3-0.3-34.7-0.3-52,0c-4.3,0.1-5.1-1.4-5.1-5.4
		C303.2,227.3,303.1,183,303.1,138.6z M365.1,105.6c0,12.5,0.1,25-0.1,37.5c-0.1,3.3,1,4.2,4.2,4.1c23.7-0.1,47.3,0,71-0.1
		c14.3-0.1,24.7-7.4,30-20.7c4.3-10.9,5.1-22.1,2.5-33.3c-3.9-17-14.4-29.7-35.9-29.1c-22,0.6-44,0.2-66,0c-4.3,0-6.1,0.7-5.9,5.6
		C365.4,81.6,365.1,93.6,365.1,105.6z"/>
	<path class="st0" d="M567.4,248.6c0,15.4-12.4,28.1-27.7,28.3c-15.2,0.1-28.4-13.1-28.3-28.4c0.1-15.1,13.1-28,28.2-28
		C554.8,220.5,567.4,233.2,567.4,248.6z"/>
</g>
</svg>
