<?xml version="1.0" standalone="no"?>
<!DOCTYPE svg PUBLIC "-//W3C//DTD SVG 20010904//EN"
 "http://www.w3.org/TR/2001/REC-SVG-20010904/DTD/svg10.dtd">
<svg version="1.0" xmlns="http://www.w3.org/2000/svg"
 width="1146.000000pt" height="1146.000000pt" viewBox="0 0 1146.000000 1146.000000"
 preserveAspectRatio="xMidYMid meet">
<metadata>
Created by potrace 1.14, written by Peter Selinger 2001-2017
</metadata>
<g transform="translate(0.000000,1146.000000) scale(0.100000,-0.100000)"
fill="#000000" stroke="none">
<path d="M8250 9449 c-30 -4 -80 -10 -110 -13 -82 -9 -164 -23 -245 -42 -5 -1
-23 -5 -40 -8 -16 -3 -51 -12 -77 -20 -27 -8 -48 -12 -48 -11 0 6 -246 -80
-340 -118 -107 -43 -264 -119 -268 -129 -2 -4 -8 -8 -13 -8 -10 0 -169 -89
-179 -99 -3 -4 -32 -24 -65 -46 -208 -137 -454 -359 -607 -547 -18 -22 -39
-46 -45 -53 -7 -8 -13 -18 -13 -24 0 -6 -4 -11 -10 -11 -5 0 -20 -15 -32 -34
-13 -18 -56 -81 -95 -139 -40 -59 -73 -109 -73 -113 0 -3 -12 -25 -27 -48 -16
-22 -41 -68 -58 -101 -16 -33 -34 -63 -38 -66 -5 -3 -8 -9 -8 -13 1 -3 -6 -20
-14 -36 -9 -17 -12 -30 -8 -30 5 0 3 -4 -3 -8 -6 -4 -30 -53 -53 -110 -107
-262 -171 -515 -207 -817 -4 -34 -16 -264 -16 -310 0 -45 12 -245 16 -285 6
-48 17 -131 20 -155 2 -11 6 -40 10 -65 21 -146 76 -359 128 -500 75 -203 180
-426 249 -528 16 -24 29 -45 29 -47 0 -11 174 -248 205 -281 11 -11 33 -36 48
-55 63 -77 247 -257 336 -329 24 -19 48 -40 55 -46 32 -29 204 -154 214 -154
5 0 12 -4 14 -9 4 -11 162 -111 176 -111 5 0 12 -4 14 -9 8 -23 364 -187 512
-236 47 -15 186 -56 201 -59 6 -1 19 -5 30 -9 11 -3 31 -8 45 -11 27 -4 132
-24 165 -30 11 -2 49 -7 85 -11 36 -4 76 -10 90 -11 14 -2 76 -6 138 -9 62 -2
117 -7 122 -10 6 -3 10 -3 10 2 0 4 46 8 103 8 56 0 129 2 162 6 197 23 197
23 265 34 48 8 72 12 80 15 3 1 8 2 11 2 4 -1 22 3 40 9 19 5 45 11 59 14 38
7 227 62 239 69 6 4 19 9 28 11 29 5 199 73 281 112 43 20 79 37 82 38 3 0 42
20 88 43 45 23 82 41 82 40 0 -2 2 -304 3 -673 2 -368 7 -685 10 -704 15 -80
64 -190 114 -260 34 -46 153 -159 176 -167 9 -3 17 -9 17 -13 0 -15 163 -90
237 -110 70 -19 244 -27 268 -13 5 3 16 7 25 8 50 4 233 75 275 106 103 75
165 133 204 193 14 22 28 42 31 45 7 6 33 60 51 105 22 56 45 160 48 215 7
115 5 4018 -2 4080 -4 36 -9 76 -12 90 -3 14 -8 45 -11 70 -3 25 -7 52 -9 60
-3 8 -7 32 -11 54 -10 66 -50 255 -60 286 -3 8 -5 16 -5 18 1 1 -5 18 -13 37
-8 19 -13 35 -11 35 13 0 -141 392 -157 398 -4 2 -8 9 -8 15 0 30 -170 325
-217 377 -13 14 -23 29 -23 34 0 4 -12 23 -27 41 -16 18 -37 44 -47 59 -11 15
-29 37 -40 50 -12 13 -48 54 -81 92 -101 114 -276 279 -384 361 -74 57 -148
115 -158 123 -7 6 -13 7 -13 3 0 -4 -4 -3 -8 3 -18 26 -349 224 -361 215 -2
-1 -7 1 -10 6 -6 9 -134 66 -216 96 -22 8 -49 18 -60 23 -61 22 -268 76 -297
77 -16 0 -28 4 -28 8 0 4 -8 8 -17 8 -10 0 -25 1 -33 4 -8 2 -37 7 -65 12 -27
4 -54 10 -59 13 -4 2 -25 6 -45 8 -20 1 -56 6 -81 9 -96 14 -132 16 -350 19
-124 1 -250 -1 -280 -5z m440 -1463 c47 -2 99 -10 115 -17 17 -7 32 -13 35
-13 3 -1 39 -15 80 -31 41 -16 80 -30 85 -31 13 -2 144 -61 165 -74 8 -5 33
-19 55 -30 116 -63 345 -260 423 -365 12 -16 37 -50 55 -75 87 -118 195 -341
223 -462 2 -10 6 -26 8 -35 17 -73 26 -114 25 -120 -1 -5 0 -10 1 -13 12 -25
19 -550 7 -550 -4 0 -6 -3 -5 -7 8 -34 -106 -330 -157 -410 -11 -17 -33 -54
-50 -83 -16 -28 -39 -61 -50 -74 -11 -13 -33 -41 -50 -61 -57 -72 -174 -184
-239 -230 -15 -11 -33 -25 -40 -31 -6 -6 -33 -23 -61 -39 -27 -16 -52 -32 -55
-35 -6 -8 -179 -94 -194 -96 -6 -2 -42 -14 -81 -28 -232 -83 -527 -103 -772
-52 -51 11 -210 55 -238 67 -16 7 -32 13 -35 14 -3 1 -18 7 -33 13 -16 7 -32
12 -37 12 -5 0 -10 3 -12 8 -1 4 -30 20 -63 37 -180 89 -372 257 -507 446 -70
97 -169 290 -189 369 -7 27 -16 50 -19 50 -4 0 -7 6 -7 13 0 6 -7 39 -16 72
-35 133 -42 194 -41 385 0 91 3 188 7 215 20 126 73 307 113 384 13 24 24 50
24 57 0 8 5 14 10 14 6 0 10 6 10 13 0 11 66 121 90 150 6 7 33 41 61 77 62
80 193 208 280 275 35 27 67 53 70 58 3 5 10 9 15 9 5 1 27 12 49 26 138 88
400 184 508 186 15 1 27 4 27 8 0 3 7 5 15 4 9 -1 35 0 58 4 44 6 191 5 337
-4z"/>
<path d="M4097 9404 c-1 -1 -38 -5 -82 -8 -77 -5 -97 -8 -175 -22 -19 -4 -42
-8 -50 -10 -8 -1 -26 -5 -40 -9 -14 -3 -35 -8 -48 -11 -85 -18 -392 -152 -400
-175 -2 -5 -8 -9 -14 -9 -26 0 -183 -124 -279 -219 -116 -117 -207 -239 -272
-364 -23 -45 -45 -83 -49 -85 -5 -2 -8 -12 -8 -21 0 -10 -3 -21 -7 -25 -5 -4
-8 -11 -9 -14 0 -4 -6 -20 -13 -37 -12 -26 -73 -202 -81 -230 -1 -5 -4 -14 -5
-20 -2 -5 -10 -32 -18 -60 -8 -27 -18 -63 -22 -80 -5 -16 -9 -34 -11 -40 -24
-87 -47 -173 -50 -185 -2 -8 -11 -42 -20 -75 -9 -33 -17 -67 -19 -75 -2 -8
-24 -93 -50 -189 -26 -95 -48 -181 -50 -190 -2 -9 -31 -115 -63 -236 -33 -121
-63 -236 -67 -255 -4 -19 -10 -39 -13 -45 -4 -5 -7 -14 -8 -20 -4 -21 -34
-136 -69 -265 -20 -74 -38 -142 -40 -150 -2 -8 -15 -57 -29 -107 -14 -51 -28
-103 -30 -115 -3 -13 -12 -48 -21 -78 -9 -30 -18 -64 -20 -75 -3 -11 -19 -69
-36 -130 -17 -60 -32 -119 -33 -130 -2 -11 -5 -20 -6 -20 -1 0 -4 -9 -6 -20
-1 -11 -21 -87 -44 -170 -23 -82 -43 -154 -44 -160 -14 -68 -88 -164 -142
-186 -30 -13 -34 -14 -74 -25 -14 -3 -120 -7 -237 -8 -116 0 -214 -3 -216 -6
-3 -3 -104 -4 -224 -3 -229 1 -315 -6 -398 -34 -27 -10 -52 -18 -55 -18 -13
-4 -88 -42 -115 -60 -98 -63 -209 -183 -258 -280 -97 -193 -99 -416 -6 -614
108 -230 332 -393 569 -416 242 -23 956 -23 1145 0 112 14 157 21 185 30 10 3
31 7 46 9 46 6 244 73 298 101 27 14 53 25 56 25 20 0 215 126 293 189 33 27
150 144 191 191 54 64 194 278 201 310 1 3 15 34 32 70 31 67 85 205 84 215
-1 3 5 21 13 40 8 19 13 35 11 35 -3 0 0 11 5 24 12 32 72 258 73 274 0 6 4
12 9 12 5 0 7 4 4 8 -3 5 3 35 13 68 10 32 18 62 19 67 1 4 2 8 3 10 0 1 2 9
4 17 1 8 10 42 19 75 9 33 19 68 21 78 2 10 27 104 55 210 47 174 56 210 63
242 2 6 6 16 11 23 4 7 5 16 2 19 -3 3 1 18 10 34 8 16 13 29 10 29 -2 0 5 33
16 73 18 66 34 129 43 167 2 8 18 67 36 130 17 63 33 122 34 130 2 8 4 17 6
20 1 3 3 10 4 15 1 6 7 28 13 50 6 22 11 42 12 45 0 3 7 29 16 59 9 30 17 62
19 70 4 17 32 124 60 226 17 61 83 308 90 335 2 8 15 58 30 110 14 52 28 106
31 120 3 14 9 40 15 58 6 18 12 41 14 50 2 9 4 17 5 17 1 0 3 7 5 16 6 34 43
105 70 137 29 35 83 67 131 78 16 3 227 8 469 10 242 1 456 5 475 8 70 10 96
15 128 25 18 5 34 10 37 11 15 3 82 32 95 40 8 6 22 13 30 17 60 26 166 119
223 195 48 64 129 238 111 238 -2 0 0 8 5 19 9 15 24 142 22 176 -6 102 -22
195 -41 240 -54 131 -90 188 -170 265 -77 75 -103 94 -188 135 -139 68 -194
77 -494 80 -146 1 -271 6 -277 9 -6 4 -11 3 -11 -2 0 -5 -10 -8 -22 -5 -22 3
-458 10 -461 7z"/>
</g>
</svg>
