<?xml version="1.0" standalone="no"?>
<!DOCTYPE svg PUBLIC "-//W3C//DTD SVG 20010904//EN"
 "http://www.w3.org/TR/2001/REC-SVG-20010904/DTD/svg10.dtd">
<svg version="1.0" xmlns="http://www.w3.org/2000/svg"
 width="2449.000000pt" height="2449.000000pt" viewBox="0 0 2449.000000 2449.000000"
 preserveAspectRatio="xMidYMid meet">
<metadata>
Created by potrace 1.14, written by Peter Selinger 2001-2017
</metadata>
<g transform="translate(0.000000,2449.000000) scale(0.100000,-0.100000)"
fill="#000000" stroke="none">
<path d="M6455 23324 c-769 -69 -1428 -296 -2020 -695 -559 -376 -974 -836
-1318 -1459 -448 -814 -699 -1658 -783 -2640 -9 -103 -19 -370 -23 -600 -6
-393 -7 -417 -27 -461 -27 -58 -61 -90 -149 -141 -280 -162 -407 -305 -490
-551 -60 -179 -58 -138 -64 -1607 l-6 -1345 -24 -38 c-31 -50 -77 -78 -176
-106 -117 -34 -268 -109 -364 -181 -98 -75 -471 -437 -598 -582 -110 -125
-155 -190 -209 -303 -101 -211 -107 -289 -102 -1340 4 -825 5 -842 27 -939 62
-279 145 -399 548 -797 367 -363 481 -440 748 -502 89 -21 106 -21 1270 -23
1197 -2 1288 -4 1355 -39 35 -18 76 -67 96 -114 15 -35 73 -251 229 -851 42
-162 142 -542 222 -845 79 -302 180 -687 223 -855 43 -168 121 -467 173 -665
87 -328 239 -907 463 -1765 47 -179 123 -471 170 -650 191 -728 227 -844 329
-1057 107 -223 236 -405 411 -578 234 -232 541 -393 844 -440 138 -21 1037
-32 1380 -16 329 15 442 40 665 151 161 81 285 171 431 315 171 170 283 323
388 533 101 200 131 286 327 922 77 250 173 561 214 690 40 129 133 429 205
665 375 1225 1027 3338 1067 3460 25 77 61 175 79 218 94 220 224 366 327 367
138 1 295 -219 411 -575 25 -77 192 -617 371 -1200 180 -583 391 -1269 470
-1525 79 -256 290 -942 470 -1525 179 -583 342 -1107 362 -1165 192 -561 532
-972 977 -1186 283 -135 423 -153 1206 -153 817 -1 960 18 1245 159 464 231
808 682 989 1295 33 113 129 474 296 1115 39 151 161 615 270 1030 109 415
269 1025 355 1355 86 330 203 778 260 995 57 217 135 517 174 665 186 722 284
1085 307 1133 41 85 97 116 231 128 42 4 709 8 1482 8 1323 1 1410 2 1480 19
112 28 227 72 304 118 155 92 315 285 376 453 62 172 64 190 68 676 6 588 -4
667 -113 910 -67 149 -66 193 3 355 104 242 113 310 113 845 0 499 -9 576 -87
765 -75 179 -235 348 -417 438 -171 85 -286 106 -631 116 -236 6 -264 8 -295
27 -66 38 -70 69 -34 254 17 84 19 148 19 560 0 331 -4 495 -13 570 -16 121
-16 315 -1 410 15 100 23 837 10 974 -35 354 -180 596 -461 770 -121 74 -165
117 -190 183 -19 50 -20 79 -20 386 0 593 -33 985 -121 1437 -200 1025 -639
1991 -1205 2650 -337 392 -787 736 -1274 975 -424 207 -828 327 -1344 398
-157 21 -184 22 -1106 22 -926 0 -948 0 -1115 -23 -318 -42 -663 -124 -919
-217 -200 -72 -303 -118 -1388 -606 -521 -234 -1107 -479 -1304 -544 -210 -70
-310 -79 -430 -40 -27 9 -146 63 -264 120 -118 57 -240 115 -270 128 -82 36
-937 419 -1390 622 -488 219 -634 279 -847 349 -290 95 -506 145 -808 188
-144 21 -188 22 -1075 23 -509 1 -943 1 -965 -1z m1160 -855 c50 -6 135 -14
190 -19 95 -8 218 -26 330 -50 28 -5 75 -15 105 -21 30 -5 87 -19 125 -31 39
-11 108 -31 155 -45 47 -14 94 -29 105 -33 11 -5 56 -20 100 -35 83 -28 237
-92 365 -152 41 -19 91 -41 110 -48 19 -7 73 -30 120 -52 47 -22 101 -46 120
-53 19 -8 69 -30 110 -50 41 -21 86 -41 100 -45 14 -4 79 -34 146 -66 66 -33
125 -59 130 -59 5 0 47 -19 94 -41 47 -23 105 -49 130 -59 25 -10 78 -34 118
-53 41 -20 83 -39 95 -43 12 -4 60 -24 107 -46 47 -22 101 -46 120 -53 20 -7
88 -38 151 -69 64 -31 121 -56 128 -56 6 0 246 -118 534 -263 287 -144 585
-292 662 -329 77 -36 217 -103 310 -147 94 -45 173 -81 177 -81 3 0 49 -20
102 -45 53 -25 101 -45 105 -45 5 0 47 -18 93 -39 45 -21 128 -58 183 -80 55
-23 114 -48 130 -56 17 -8 48 -21 70 -28 35 -13 102 -41 220 -93 69 -30 162
-66 185 -71 14 -3 30 -9 35 -14 10 -8 113 -50 230 -94 152 -58 266 -100 335
-124 41 -15 80 -30 86 -34 22 -13 457 -165 570 -198 63 -19 169 -10 259 20
151 50 242 128 313 266 l47 90 0 150 -1 150 -46 90 c-48 94 -103 155 -189 213
-25 17 -59 34 -75 38 -16 4 -67 23 -114 42 -47 18 -132 50 -190 69 -58 19
-109 38 -115 42 -5 4 -48 20 -95 36 -47 15 -89 31 -95 35 -5 4 -28 13 -50 20
-22 7 -83 30 -135 50 -52 21 -133 52 -180 70 -151 57 -213 82 -290 115 -41 18
-106 45 -145 60 -111 44 -225 97 -225 106 0 9 61 42 100 54 14 4 71 30 128 56
57 27 108 49 113 49 6 0 23 7 37 15 53 28 154 75 164 75 5 0 51 20 101 44 51
24 108 49 127 56 19 8 75 33 123 57 48 24 109 52 135 62 26 11 91 40 145 65
54 25 103 46 108 46 5 0 50 20 99 45 49 25 94 45 100 45 5 0 66 27 134 60 69
33 128 60 132 60 4 0 37 14 73 31 177 85 360 162 486 205 39 14 79 28 90 33
11 5 58 20 105 34 290 85 497 127 730 146 52 5 142 14 200 21 58 7 160 10 228
8 106 -4 127 -8 152 -26 16 -12 51 -34 77 -48 26 -15 50 -30 53 -33 3 -3 29
-19 59 -35 30 -16 61 -35 70 -42 9 -7 54 -38 101 -70 47 -31 131 -93 188 -138
57 -44 127 -99 155 -120 78 -60 442 -424 482 -481 18 -27 50 -67 70 -89 47
-50 176 -216 183 -236 3 -8 20 -33 38 -55 17 -22 42 -59 54 -83 12 -23 26 -45
31 -48 5 -3 16 -20 24 -37 8 -18 26 -50 39 -72 14 -22 39 -66 56 -97 16 -31
34 -59 40 -63 5 -3 10 -15 10 -26 0 -10 4 -19 9 -19 7 0 180 -340 200 -395 4
-11 27 -59 49 -108 23 -48 42 -94 42 -102 0 -7 11 -34 24 -58 13 -25 26 -55
29 -68 6 -28 33 -101 52 -144 7 -16 15 -39 18 -50 7 -25 26 -81 43 -120 7 -16
22 -64 34 -105 12 -41 28 -88 35 -105 7 -16 18 -57 24 -90 7 -33 16 -69 20
-80 15 -37 41 -142 59 -240 5 -26 14 -51 20 -57 7 -7 12 -24 12 -39 0 -40 30
-201 39 -213 5 -6 11 -40 15 -76 3 -36 13 -108 21 -160 28 -174 44 -314 51
-430 4 -63 11 -123 16 -132 5 -10 11 -182 13 -382 l5 -364 -37 -23 c-41 -25
-158 -126 -243 -209 -28 -27 -55 -48 -60 -45 -4 3 -20 26 -35 53 -29 49 -138
162 -190 197 -60 40 -133 69 -225 90 -67 14 -173 16 -1035 13 -972 -4 -1012
-5 -1082 -40 -16 -8 -26 -8 -35 0 -42 34 -104 36 -1368 39 -1117 3 -1250 2
-1297 -12 -43 -14 -59 -14 -105 -4 -64 15 -1124 25 -1142 10 -6 -5 -31 -12
-56 -16 -24 -4 -51 -11 -60 -15 -8 -5 -44 -23 -80 -41 -123 -60 -250 -195
-315 -333 -21 -44 -30 -55 -36 -43 -5 8 -23 43 -41 77 -37 69 -108 154 -183
219 -55 47 -168 111 -197 111 -10 0 -18 4 -18 9 0 5 -28 15 -62 22 -47 10
-197 14 -588 17 -464 2 -531 1 -578 -14 -46 -14 -61 -14 -120 -3 -51 9 -335
13 -1207 16 -1008 3 -1146 2 -1190 -12 -42 -13 -58 -13 -100 -3 -35 8 -213 13
-580 15 -562 4 -539 6 -686 -43 -45 -15 -91 -12 -116 8 -33 26 -140 32 -653
35 -469 3 -541 2 -587 -12 -43 -14 -59 -14 -105 -4 -72 17 -1095 25 -1153 9
-181 -50 -281 -106 -385 -217 -41 -44 -74 -72 -78 -66 -33 50 -121 134 -188
179 -45 30 -85 54 -89 54 -4 0 -21 6 -38 14 -71 32 -159 46 -293 46 l-135 0 5
243 c6 351 27 639 56 790 6 27 10 68 10 92 0 24 4 55 9 68 5 14 15 60 21 103
40 262 137 648 238 949 36 107 76 211 102 270 5 11 28 67 51 125 42 108 290
613 314 640 7 8 24 38 39 67 14 28 30 54 35 57 5 3 19 25 31 48 12 24 38 67
58 97 21 29 45 68 55 85 11 17 32 45 48 61 16 17 29 36 29 41 0 6 10 19 22 30
11 10 41 46 65 79 73 99 304 349 346 375 15 9 60 48 100 87 40 39 86 78 103
88 16 10 40 29 54 41 46 42 311 222 435 296 74 45 278 150 325 168 19 7 64 26
100 43 215 97 525 190 810 243 175 32 198 36 305 45 61 6 144 14 185 18 110
11 391 11 495 0z m-4273 -5976 c19 -22 143 -245 223 -403 32 -63 70 -137 85
-165 50 -91 83 -150 90 -160 4 -5 23 -39 42 -75 114 -212 132 -240 153 -240 8
0 30 33 51 73 20 39 49 95 64 122 30 56 133 251 177 335 15 30 30 57 33 60 3
3 19 32 36 65 50 97 124 236 147 274 12 20 33 57 47 84 l25 47 420 -2 420 -3
0 -1440 0 -1440 -422 -3 -423 -2 0 525 c0 494 -1 525 -17 525 -12 -1 -30 -26
-55 -78 -53 -110 -164 -319 -200 -374 l-30 -48 -279 0 -278 0 -24 33 c-24 31
-69 110 -124 218 -16 30 -30 56 -33 59 -3 3 -25 47 -50 98 -76 157 -75 165
-78 -436 l-2 -522 -423 2 -422 3 -3 1430 c-1 787 0 1436 3 1443 3 9 96 12 418
12 382 0 415 -1 429 -17z m3308 -1008 l0 -1025 300 0 300 0 0 1025 0 1025 423
-2 422 -3 3 -1159 2 -1159 -114 -116 c-212 -215 -342 -346 -408 -408 l-66 -63
-133 0 c-74 0 -334 5 -579 11 l-445 12 -277 281 -278 281 0 1156 c0 635 3
1159 7 1162 3 4 195 7 425 7 l418 0 0 -1025z m3930 605 l0 -420 -607 -2 -608
-3 -3 -84 c-2 -61 1 -87 10 -92 7 -5 163 -9 346 -9 l332 0 -2 -417 -3 -418
-340 -5 -340 -5 0 -80 0 -80 608 -3 607 -2 0 -425 0 -425 -1027 2 -1028 3 -3
1430 c-1 787 0 1436 3 1443 3 9 219 12 1030 12 l1025 0 0 -420z m1280 -593 c0
-775 3 -1016 12 -1025 9 -9 124 -12 455 -12 l443 0 0 -420 0 -420 -872 2 -873
3 -3 1430 c-1 787 0 1436 3 1443 3 9 97 12 420 12 l415 0 0 -1013z m2200 -432
l0 -1445 -417 2 -418 3 -3 1430 c-1 787 0 1436 3 1443 3 9 97 12 420 12 l415
0 0 -1445z m2708 1023 l2 -418 -357 -2 -358 -3 -3 -1022 -2 -1023 -420 0 -420
0 -2 1023 -3 1022 -362 3 -363 2 0 413 c0 228 3 417 7 420 3 4 518 6 1142 5
l1136 -3 3 -417z m2210 380 c20 -72 57 -373 102 -828 5 -58 14 -125 19 -150 6
-25 17 -108 26 -185 9 -77 21 -167 26 -200 5 -33 14 -100 20 -150 6 -49 17
-144 25 -210 21 -170 41 -335 53 -445 6 -52 15 -124 20 -160 6 -36 17 -128 26
-205 9 -77 20 -164 26 -194 5 -30 9 -69 9 -88 l0 -33 -415 0 -415 0 -11 28
c-16 41 -47 265 -74 532 -8 85 -21 184 -28 220 l-13 65 -241 3 c-185 2 -243
-1 -250 -10 -6 -7 -16 -65 -22 -128 -11 -108 -27 -258 -50 -445 -12 -97 -32
-235 -37 -253 -3 -10 -92 -12 -421 -10 l-418 3 3 60 c1 33 7 87 12 120 6 33
15 105 21 160 10 96 18 162 54 465 9 74 23 189 30 255 8 66 21 174 29 240 9
66 20 158 25 205 5 47 12 96 15 110 3 14 11 70 17 125 6 55 17 152 25 215 7
63 21 174 29 245 9 72 22 182 30 245 8 63 19 153 24 200 6 47 15 107 21 133 5
26 10 61 10 77 l0 30 843 0 843 0 12 -42z m3072 -388 l0 -420 -712 -2 -713 -3
-3 -65 c-2 -35 0 -75 3 -87 l5 -23 472 0 472 0 238 -239 238 -240 0 -446 0
-446 -245 -245 -244 -244 -893 2 -893 3 -3 417 -2 418 717 2 718 3 0 85 0 85
-479 5 -478 5 -239 243 -239 243 0 437 0 437 247 248 248 247 892 0 893 0 0
-420z m-18952 -3697 l2 -423 -619 0 c-555 0 -619 -2 -625 -16 -3 -9 -6 -275
-6 -593 0 -435 3 -580 12 -589 9 -9 162 -12 625 -12 l613 0 0 -420 0 -420
-758 0 -757 0 -288 287 -287 288 0 875 0 875 188 190 c103 105 233 234 288
288 l101 97 754 -2 754 -3 3 -422z m17920 0 l2 -423 -722 -2 -723 -3 -3 -580
c-1 -319 0 -590 3 -602 l5 -23 285 0 c157 0 286 1 287 3 1 1 5 160 8 352 l5
350 425 0 425 0 3 -760 c2 -706 1 -761 -15 -772 -13 -10 -201 -13 -858 -13
l-841 0 -292 293 -292 293 0 865 0 865 263 264 c144 146 278 277 296 293 l33
27 851 -2 852 -3 3 -422z m-16638 -87 c0 -414 2 -506 14 -515 9 -8 97 -11 302
-9 l289 3 3 508 2 507 420 0 420 0 0 -1440 0 -1440 -420 0 -420 0 0 510 0 510
-302 -2 -303 -3 -3 -508 -2 -507 -418 2 -417 3 -3 1430 c-1 787 0 1436 3 1443
3 9 97 12 420 12 l415 0 0 -504z m3925 493 c16 -25 50 -286 100 -764 8 -77 22
-189 30 -250 9 -60 20 -144 25 -185 5 -41 17 -129 26 -195 15 -114 27 -208 59
-480 17 -136 37 -299 60 -490 9 -71 20 -168 25 -214 6 -46 14 -111 20 -145 5
-33 10 -82 10 -109 l0 -47 -417 2 -418 3 -13 70 c-7 39 -19 122 -28 185 -14
110 -18 146 -44 390 -6 58 -15 115 -20 128 -6 13 -10 34 -10 48 l0 24 -247 -2
-248 -3 -7 -55 c-5 -30 -15 -113 -23 -185 -8 -71 -21 -186 -29 -255 -8 -69
-17 -136 -20 -150 -2 -14 -10 -64 -16 -113 l-12 -87 -422 2 c-415 3 -421 3
-418 23 1 11 10 81 18 155 21 181 56 480 89 750 30 249 34 276 45 370 6 52 15
122 20 155 6 33 15 105 21 160 6 55 17 152 24 215 36 297 45 374 60 490 9 69
20 157 25 195 21 170 31 244 42 308 l11 67 838 0 c578 0 840 -3 844 -11z
m1645 -1014 l5 -1020 453 -3 452 -2 -2 -418 -3 -417 -870 0 -870 0 -3 1430
c-1 787 0 1436 3 1443 3 10 92 12 417 10 l413 -3 5 -1020z m2190 12 c0 -775 3
-1016 12 -1025 9 -9 124 -12 455 -12 l443 0 0 -420 0 -420 -872 2 -873 3 -3
1430 c-1 787 0 1436 3 1443 3 9 97 12 420 12 l415 0 0 -1013z m3410 593 l0
-420 -602 -2 -603 -3 0 -90 0 -90 343 -3 342 -2 0 -404 c0 -223 -3 -411 -6
-420 -5 -14 -45 -16 -345 -16 l-340 0 3 -82 3 -83 603 -3 602 -2 0 -425 0
-425 -1027 2 -1028 3 -3 1430 c-1 787 0 1436 3 1443 3 9 219 12 1030 12 l1025
0 0 -420z m1338 338 c27 -46 69 -119 92 -163 24 -44 55 -102 70 -130 95 -177
119 -221 170 -320 32 -60 71 -135 86 -165 16 -30 32 -57 35 -60 4 -3 10 -16
14 -30 4 -14 10 -27 14 -30 3 -3 15 -22 25 -43 11 -21 24 -36 30 -34 8 3 13
166 16 528 l5 524 418 3 417 2 0 -1445 0 -1445 -412 0 c-369 0 -413 2 -430 17
-10 9 -18 22 -18 29 0 7 -3 14 -7 16 -5 2 -16 19 -27 38 -10 19 -40 73 -66
120 -82 147 -138 253 -271 510 -19 36 -36 67 -39 70 -3 3 -32 59 -64 125 -59
119 -73 138 -88 129 -4 -3 -8 -241 -8 -530 l0 -524 -422 2 -423 3 -3 1430 c-1
787 0 1436 3 1443 3 9 97 12 419 12 l415 0 49 -82z m6612 -338 l0 -420 -594 0
c-327 0 -601 -3 -610 -6 -13 -5 -16 -22 -16 -83 0 -47 5 -82 12 -89 9 -9 99
-12 345 -12 l333 0 -2 -417 -3 -418 -340 -5 -340 -5 -3 -74 c-2 -53 1 -77 10
-82 7 -5 282 -9 611 -9 l597 0 0 -425 0 -425 -1027 2 -1028 3 -3 1430 c-1 787
0 1436 3 1443 3 9 219 12 1030 12 l1025 0 0 -420z m-15956 -3120 c37 -17 89
-36 114 -42 69 -18 1098 -17 1170 1 43 10 63 10 100 0 34 -10 210 -15 650 -19
l603 -5 -49 -35 c-28 -19 -74 -53 -103 -75 -81 -62 -285 -272 -313 -322 -5
-10 -24 -36 -42 -58 -38 -47 -115 -201 -133 -265 -7 -25 -19 -61 -26 -80 -8
-19 -26 -80 -41 -135 -15 -55 -30 -107 -35 -115 -4 -8 -13 -35 -19 -60 -7 -25
-19 -64 -26 -88 -8 -23 -14 -51 -14 -62 0 -10 -4 -22 -10 -25 -5 -3 -10 -15
-10 -25 0 -11 -6 -34 -14 -52 -19 -47 -86 -261 -86 -275 0 -7 -6 -27 -14 -45
-8 -18 -19 -53 -26 -78 -7 -25 -15 -52 -20 -60 -4 -9 -11 -31 -15 -50 -8 -41
-24 -96 -36 -125 -9 -22 -22 -62 -63 -200 -15 -49 -36 -117 -47 -150 -11 -33
-29 -94 -39 -135 -10 -41 -24 -91 -31 -110 -6 -19 -15 -44 -19 -55 -4 -11 -13
-36 -19 -55 -7 -19 -17 -53 -22 -75 -5 -22 -16 -58 -24 -80 -7 -22 -21 -67
-30 -100 -9 -33 -23 -72 -31 -87 -8 -14 -14 -34 -14 -43 0 -9 -10 -49 -23 -88
-13 -40 -29 -92 -36 -117 -7 -25 -16 -52 -20 -60 -5 -8 -20 -60 -35 -115 -15
-55 -34 -116 -41 -135 -7 -19 -23 -69 -35 -110 -12 -41 -25 -86 -30 -100 -4
-14 -18 -59 -30 -100 -12 -41 -25 -84 -30 -95 -8 -22 -44 -141 -59 -195 -9
-32 -22 -73 -41 -125 -4 -11 -20 -63 -34 -115 -15 -52 -31 -108 -37 -125 -33
-96 -58 -177 -73 -230 -9 -33 -26 -87 -37 -120 -22 -68 -38 -121 -64 -215 -9
-36 -21 -74 -25 -85 -25 -61 -90 -272 -90 -291 0 -8 -4 -22 -9 -32 -12 -24
-30 -79 -46 -137 -8 -27 -23 -79 -35 -115 -28 -86 -73 -231 -95 -305 -15 -53
-29 -95 -76 -225 -15 -40 -95 -218 -109 -240 -5 -8 -21 -38 -35 -66 -14 -29
-34 -62 -44 -75 -10 -13 -26 -39 -35 -57 -10 -18 -38 -60 -64 -94 -26 -33 -52
-68 -58 -79 -19 -33 -47 -59 -63 -59 -9 0 -37 17 -63 37 -26 21 -65 52 -88 68
-51 36 -208 198 -241 247 -13 19 -44 63 -69 97 -82 111 -180 290 -196 357 -4
16 -11 34 -15 40 -5 6 -20 41 -34 79 -24 64 -39 114 -70 245 -7 30 -23 89 -34
130 -11 41 -48 181 -82 310 -34 129 -75 285 -91 345 -29 108 -50 191 -68 270
-10 43 -20 79 -68 250 -17 61 -45 166 -62 235 -17 69 -38 150 -45 180 -28 111
-106 408 -145 550 -10 36 -25 92 -34 125 -8 33 -25 96 -36 140 -12 44 -27 107
-35 141 -7 33 -24 98 -38 145 -24 81 -50 176 -67 249 -4 19 -15 60 -23 90 -58
214 -109 409 -153 580 -20 80 -57 222 -81 315 -25 94 -49 188 -53 210 -5 22
-14 53 -20 70 -10 28 -30 98 -50 185 -4 19 -25 98 -45 175 -80 302 -127 482
-135 520 -5 22 -16 65 -24 95 -20 72 -84 309 -90 335 -3 11 -12 51 -21 89 -9
38 -21 80 -25 92 l-9 23 432 3 c343 2 437 6 456 17 31 17 104 18 161 2 34 -9
177 -11 570 -8 563 3 563 3 689 58 36 15 69 28 72 29 3 0 36 -14 73 -30z
m9641 -14 c99 -42 146 -46 501 -46 234 0 344 -3 344 -11 0 -27 -33 -157 -45
-181 -8 -14 -15 -40 -15 -57 0 -17 -4 -39 -10 -49 -5 -9 -16 -48 -25 -87 -45
-192 -63 -264 -71 -276 -4 -7 -11 -31 -15 -54 -4 -22 -12 -56 -18 -75 -22 -79
-114 -438 -121 -475 -4 -22 -12 -51 -18 -65 -6 -14 -25 -83 -43 -155 -17 -71
-39 -155 -50 -186 -10 -30 -19 -64 -19 -75 0 -10 -7 -39 -16 -64 -15 -42 -34
-119 -84 -335 -12 -49 -28 -102 -36 -117 -7 -14 -14 -42 -14 -61 0 -20 -4 -38
-9 -41 -5 -3 -11 -18 -14 -33 -3 -16 -18 -75 -32 -133 -14 -58 -31 -125 -37
-150 -5 -25 -14 -49 -19 -54 -5 -6 -9 -25 -9 -43 0 -19 -6 -46 -14 -61 -8 -15
-22 -63 -31 -107 -9 -43 -19 -83 -22 -88 -3 -5 -18 -64 -33 -131 -15 -67 -32
-131 -38 -143 -7 -12 -12 -32 -12 -44 0 -13 -9 -48 -20 -78 -10 -31 -28 -94
-39 -141 -11 -47 -27 -112 -36 -145 -9 -33 -20 -78 -24 -100 -5 -22 -13 -51
-19 -65 -6 -14 -27 -92 -47 -175 -41 -171 -62 -250 -76 -283 -5 -13 -9 -38 -9
-55 0 -18 -5 -38 -11 -44 -6 -6 -19 -46 -29 -89 -10 -44 -32 -133 -49 -198
-17 -66 -31 -128 -31 -139 0 -10 -7 -31 -15 -45 -8 -15 -21 -58 -30 -97 -21
-90 -60 -243 -80 -320 -9 -33 -20 -78 -24 -100 -4 -22 -12 -49 -17 -60 -6 -11
-28 -92 -49 -180 -20 -88 -42 -169 -48 -180 -6 -11 -14 -38 -18 -60 -4 -22
-14 -65 -23 -95 -9 -30 -23 -85 -31 -122 -9 -36 -32 -106 -51 -154 -19 -48
-34 -92 -34 -97 0 -14 -173 -355 -204 -403 -46 -71 -117 -169 -183 -253 -5 -7
-86 40 -118 69 -16 15 -38 32 -48 37 -29 15 -217 205 -242 244 -13 20 -29 42
-37 50 -25 26 -136 205 -178 289 -48 94 -150 362 -150 393 0 9 -22 82 -145
472 -24 77 -47 151 -50 165 -4 14 -29 97 -56 185 -28 88 -70 223 -94 300 -24
77 -66 213 -94 301 -28 89 -51 166 -51 171 0 5 -22 77 -48 159 -27 82 -52 163
-56 179 -4 17 -31 107 -60 200 -30 94 -78 247 -106 340 -29 94 -75 242 -102
330 -27 88 -70 225 -94 305 -25 80 -67 215 -94 300 -27 85 -51 166 -55 180 -3
14 -28 95 -54 180 -27 85 -72 229 -99 320 -134 432 -156 504 -198 635 -24 77
-44 145 -44 150 0 10 -32 114 -157 505 -63 196 -150 379 -205 434 -10 10 -18
22 -18 27 0 6 -25 37 -56 69 l-55 58 38 6 c21 4 61 1 88 -6 38 -9 326 -13
1180 -16 1032 -3 1136 -2 1203 14 69 16 78 16 133 0 51 -14 128 -16 586 -16
289 0 540 4 557 9 17 5 58 18 91 29 74 25 69 25 110 8z"/>
<path d="M18035 15658 c-11 -37 -34 -192 -47 -318 l-3 -25 144 -3 143 -3 -5
43 c-3 24 -10 102 -17 173 -7 72 -18 133 -24 137 -20 14 -186 9 -191 -4z"/>
<path d="M7366 11952 c-3 -5 -8 -40 -11 -78 -4 -38 -10 -82 -15 -99 -5 -16
-11 -63 -15 -102 l-6 -73 141 0 141 0 -7 108 c-4 59 -12 139 -19 177 l-11 70
-96 3 c-53 1 -99 -1 -102 -6z"/>
</g>
</svg>
