<?xml version="1.0" encoding="utf-8"?>
<!-- Generator: Adobe Illustrator 19.0.0, SVG Export Plug-In . SVG Version: 6.00 Build 0)  -->
<svg version="1.1" id="Capa_1" xmlns="http://www.w3.org/2000/svg" xmlns:xlink="http://www.w3.org/1999/xlink" x="0px" y="0px"
	 viewBox="0 0 573.09387 373.61047" style="enable-background:new 0 0 573.09387 373.61047;" xml:space="preserve">
<style type="text/css">
	.st0{fill:#A3DC46;}
	.st1{fill:#DAFEA8;}
</style>
<g>
	<path class="st0" d="M499.68008,275.93286c-16.3074,8.87851-33.37326,15.46829-51.86819,18.28088
		c-41.36981,6.29132-78.77637-3.53494-111.72934-28.72137c-34.89218-26.66859-54.06815-62.42311-57.61789-106.3987
		c-5.24838-65.01851,34.43954-127.12416,95.73187-149.8175c28.26196-10.46393,56.99139-11.96555,86.24384-5.05891
		c-4.37018,0.60646-8.82901,0.85009-13.09671,1.88333c-17.86469,4.32522-29.43106,22.24052-26.95517,40.2859
		c1.69357,12.34367,8.14578,21.0294,18.28,27.51494c-1.32959-0.01645-2.67392,0.09001-3.9866-0.06743
		c-28.05975-3.36514-50.76852,7.07526-68.25369,28.29129c-21.99521,26.68829-20.95688,67.01164,1.32224,94.26433
		c21.61496,26.44016,60.18384,34.6232,90.91653,19.05969c21.37238-10.82327,34.24149-28.42838,39.9765-51.48407
		c0.29633,1.91263,0.84595,3.82449,0.85138,5.73795C499.59537,205.11299,499.63089,240.52293,499.68008,275.93286z"/>
	<path class="st0" d="M56.24861,220.30006c5.83104,0,11.66211,0.01254,17.49311-0.00287
		c9.68472-0.0256,14.04047-3.27103,16.52078-12.54083c9.84695-36.80145,19.60094-73.6279,29.49439-110.41684
		c3.75748-13.97226,6.98175-28.16246,11.873-41.74039C143.3391,23.0948,172.70767,2.99,207.2939,2.87067
		c14.16006-0.04886,28.32445,0.44037,42.48096,0.2485c19.66258-0.26651,37.78331,13.13764,38.28801,35.91494
		c0.41281,18.63251-13.53696,36.51981-37.9969,36.66772c-12.16145,0.07355-24.32387-0.02217-36.48555,0.02824
		c-8.87152,0.03677-13.23851,3.34972-15.49913,11.81311c-12.49248,46.76974-25.02122,93.53001-37.39444,140.33134
		c-7.49895,28.36458-23.37526,49.71092-51.60619,59.66502c-9.53979,3.36368-20.12062,4.61905-30.30775,5.10013
		c-14.44486,0.68213-28.96734-0.17172-43.45364-0.50153c-19.02304-0.43301-34.52903-16.02441-35.29513-35.34219
		c-0.69167-17.44109,13.57196-33.91689,31.78865-35.79887c8.06348-0.83301,16.28457-0.1405,24.43411-0.1405
		C56.24746,220.67107,56.24804,220.48558,56.24861,220.30006z"/>
	<path class="st1" d="M499.68008,275.93286c-0.04919-35.40993-0.08472-70.81987-0.18524-106.22966
		c-0.00543-1.91345-0.55505-3.82532-0.85114-5.73755c0.04163-5.48285,0.0072-10.96786,0.13702-16.44901
		c0.70978-29.97581-20.50757-58.46313-47.30539-68.70024c-4.27145-1.63174-8.53802-3.27632-12.80685-4.91496
		c-10.13422-6.48553-16.58643-15.17126-18.28-27.51494c-2.47589-18.04538,9.09048-35.96069,26.95517-40.2859
		c4.2677-1.03324,8.72653-1.27687,13.09671-1.88333c21.19989,4.16231,39.61789,14.22864,56.28351,27.48206
		c22.78278,18.11804,39.40039,40.96397,48.35944,68.72585c3.68524,11.41959,5.93268,23.46109,7.38013,35.39604
		c1.20679,9.95016,0.30957,20.15781,0.31128,30.2514c0.0097,56.45651,0.02582,112.91301,0.00183,169.36952
		c-0.00677,15.86649-7.34589,27.69949-21.43127,34.35236c-14.1861,6.70044-28.08679,4.47607-39.95432-5.87805
		c-7.23389-6.31137-11.58026-14.70029-11.67108-24.53522C499.52457,318.23346,499.67252,297.08252,499.68008,275.93286z"/>
</g>
</svg>